<?xml version="1.0" encoding="UTF-8" standalone="no"?>
<!DOCTYPE svg PUBLIC "-//W3C//DTD SVG 1.1//EN" "http://www.w3.org/Graphics/SVG/1.1/DTD/svg11.dtd">
<svg width="100%" height="100%" viewBox="0 0 512 512" version="1.1" xmlns="http://www.w3.org/2000/svg" xmlns:xlink="http://www.w3.org/1999/xlink" xml:space="preserve" xmlns:serif="http://www.serif.com/" style="fill-rule:evenodd;clip-rule:evenodd;stroke-linejoin:round;stroke-miterlimit:2;">
    <g id="Page-1">
        <g id="_004---Mail" serif:id="004---Mail">
            <path id="Shape" d="M308.966,97.103C304.09,97.103 300.138,93.151 300.138,88.276L300.138,52.966C300.138,48.09 304.09,44.138 308.966,44.138C313.841,44.138 317.793,48.09 317.793,52.966L317.793,88.276C317.793,93.151 313.841,97.103 308.966,97.103Z" style="fill:rgb(149,165,165);fill-rule:nonzero;"/>
            <path id="Shape1" serif:id="Shape" d="M308.966,0L379.586,0C384.462,0 388.414,3.952 388.414,8.828L388.414,44.138C388.414,49.013 384.462,52.966 379.586,52.966L300.138,52.966L300.138,8.828C300.138,3.952 304.09,0 308.966,0Z" style="fill:rgb(240,196,25);fill-rule:nonzero;"/>
            <path id="Shape2" serif:id="Shape" d="M351.144,512L275.615,512C270.088,512.386 265.278,508.253 264.828,502.731L264.828,326.621L361.931,326.621L361.931,502.731C361.48,508.253 356.671,512.386 351.144,512Z" style="fill:rgb(165,106,67);fill-rule:nonzero;"/>
            <path id="Shape3" serif:id="Shape" d="M308.966,485.517C304.09,485.517 300.138,481.565 300.138,476.69L300.138,335.448C300.138,330.573 304.09,326.621 308.966,326.621C313.841,326.621 317.793,330.573 317.793,335.448L317.793,476.69C317.793,481.565 313.841,485.517 308.966,485.517Z" style="fill:rgb(128,83,51);fill-rule:nonzero;"/>
            <path id="Shape4" serif:id="Shape" d="M256,335.448L503.172,335.448C508.048,335.448 512,331.496 512,326.621L512,185.379C512,131.751 468.525,88.276 414.897,88.276L167.724,88.276L256,335.448Z" style="fill:rgb(201,166,113);fill-rule:nonzero;"/>
            <g id="Rectangle-path" transform="matrix(0.796051,0,0,0.258099,0.339403,-34.4649)">
                <path d="M476.69,273.655C476.69,259.039 472.842,247.172 468.103,247.172L397,247.172C392.261,247.172 388.414,259.039 388.414,273.655C388.414,288.271 392.261,300.138 397,300.138L468.103,300.138C472.842,300.138 476.69,288.271 476.69,273.655Z" style="fill:rgb(219,27,27);"/>
            </g>
            <g id="Rectangle-path1" serif:id="Rectangle-path" transform="matrix(0.796051,0,0,0.100042,0.339403,-15.3976)">
                <path d="M476.69,273.655C476.69,259.039 475.198,247.172 473.361,247.172L391.742,247.172C389.905,247.172 388.414,259.039 388.414,273.655C388.414,288.271 389.905,300.138 391.742,300.138L473.361,300.138C475.198,300.138 476.69,288.271 476.69,273.655Z" style="fill:rgb(2,147,77);"/>
            </g>
            <g id="Rectangle-path2" serif:id="Rectangle-path" transform="matrix(0.796051,0,0,0.100042,0.339403,-5.39763)">
                <path d="M476.69,273.655C476.69,259.039 475.198,247.172 473.361,247.172L391.742,247.172C389.905,247.172 388.414,259.039 388.414,273.655C388.414,288.271 389.905,300.138 391.742,300.138L473.361,300.138C475.198,300.138 476.69,288.271 476.69,273.655Z" style="fill:rgb(2,147,77);"/>
            </g>
            <path d="M79.846,335.448C74.97,335.448 71.018,331.496 71.018,326.621L71.018,185.379C71.018,182.553 71.139,179.755 71.403,176.986L71.018,176.552C75.582,126.55 117.514,88.273 167.724,88.276L167.923,88.281C143.162,88.327 120.576,97.643 103.453,112.944C120.573,97.645 143.16,88.328 167.923,88.281L168.121,88.276C218.331,88.273 260.263,126.55 264.828,176.552L264.57,178.65L264.586,178.858C264.755,181.011 264.828,183.187 264.828,185.379L264.828,326.621C264.828,331.496 260.875,335.448 256,335.448L79.846,335.448Z" style="fill:rgb(125,90,38);"/>
            <g id="Shape5" serif:id="Shape" transform="matrix(0.956859,0.290553,-0.290553,0.956859,93.4658,-71.162)">
                <path d="M226.604,184.497C223.339,179.538 217.799,176.553 211.862,176.552L17.655,176.552C7.904,176.552 0,184.456 0,194.207L0,317.793C0.035,322.682 2.077,327.343 5.65,330.681C8.874,333.779 13.184,335.49 17.655,335.448L211.862,335.448C216.333,335.49 220.643,333.779 223.868,330.681C227.44,327.343 229.483,322.682 229.517,317.793L229.517,194.207C229.516,190.755 228.504,187.379 226.604,184.497Z" style="fill:rgb(243,213,91);fill-rule:nonzero;"/>
            </g>
            <g id="Shape6" serif:id="Shape" transform="matrix(0.956859,0.290553,-0.290553,0.956859,93.4658,-71.162)">
                <path d="M90.659,258.737L5.65,330.681C2.077,327.343 0.035,322.682 0,317.793L0,194.207C0.001,190.755 1.014,187.379 2.913,184.497L90.659,258.737Z" style="fill:rgb(240,196,25);fill-rule:nonzero;"/>
            </g>
            <g id="Shape7" serif:id="Shape" transform="matrix(0.956859,0.290553,-0.290553,0.956859,93.4658,-71.162)">
                <path d="M223.868,330.681C220.643,333.779 216.333,335.49 211.862,335.448L17.655,335.448C13.184,335.49 8.874,333.779 5.65,330.681L90.659,258.737L103.371,269.506C109.948,275.057 119.569,275.057 126.146,269.506L138.858,258.737L223.868,330.681Z" style="fill:rgb(242,156,31);fill-rule:nonzero;"/>
            </g>
            <g id="Shape8" serif:id="Shape" transform="matrix(0.956859,0.290553,-0.290553,0.956859,93.4658,-71.162)">
                <path d="M229.517,194.207L229.517,317.793C229.483,322.682 227.44,327.343 223.868,330.681L138.858,258.737L226.604,184.497C228.504,187.379 229.516,190.755 229.517,194.207Z" style="fill:rgb(240,196,25);fill-rule:nonzero;"/>
            </g>
        </g>
        <g transform="matrix(0.284104,0,0,0.284104,324.035,164.097)">
            <circle cx="256" cy="256" r="256" style="fill:rgb(39,39,61);"/>
        </g>
        <g transform="matrix(0.284104,0,0,0.284104,324.035,164.097)">
            <path d="M205,5.08L205,506.91C88.05,483.27 0,379.91 0,256C0,132.09 88.05,28.72 205,5.08Z" style="fill:rgb(2,147,77);fill-rule:nonzero;"/>
        </g>
        <g transform="matrix(0.284104,0,0,0.284104,324.035,164.097)">
            <path d="M512,256C512,395.92 399.77,509.61 260.41,512L251.59,512C235.94,511.751 220.346,510.077 205,507L205,5.08C220.152,2.036 235.548,0.362 251,0.08L261,0.08C400.06,2.68 512,116.27 512,256Z" style="fill:rgb(219,27,27);fill-rule:nonzero;"/>
        </g>
        <g transform="matrix(0.284104,0,0,0.284104,324.035,164.097)">
            <path d="M205,88.46C145.479,88.46 96.5,137.439 96.5,196.96C96.5,256.481 145.479,305.46 205,305.46C264.506,305.46 313.478,256.506 313.5,197C313.451,137.49 264.51,88.531 205,88.46ZM298.2,189.46L223.11,189.46L224.61,187.96L251.91,160.65L276.17,136.39C288.929,151.309 296.643,169.891 298.2,189.46ZM212.5,103.76C231.156,105.25 248.935,112.337 263.5,124.09L265.5,125.77L212.5,178.84L212.5,103.76ZM197.5,103.76L197.5,178.84L194.8,176.15L164.8,146.1L144.48,125.77L146.48,124.09C161.05,112.333 178.837,105.246 197.5,103.76ZM133.83,136.39L158.1,160.65L185.4,188L186.9,189.5L111.8,189.5C113.353,169.918 121.067,151.322 133.83,136.39ZM111.8,204.46L186.93,204.46L176.53,214.85L162.2,229.17L147.2,244.17L133.87,257.51C121.111,242.595 113.385,224.024 111.8,204.46ZM197.53,290.15C177.97,288.591 159.394,280.889 144.47,268.15L155.87,256.74L170.62,242L197.5,215.1L197.53,290.15ZM212.53,290.15L212.53,215.05L265.6,268.13C250.667,280.884 232.076,288.594 212.5,290.15L212.53,290.15ZM276.2,257.52L247.87,229.18L233.56,214.9L223.11,204.46L298.2,204.46C296.633,224.023 288.92,242.6 276.17,257.52L276.2,257.52Z" style="fill:rgb(246,199,82);fill-rule:nonzero;"/>
        </g>
        <g transform="matrix(0.284104,0,0,0.284104,324.035,164.097)">
            <path d="M148,124C143.339,124.005 139.505,127.839 139.5,132.5L139.5,220.44L139.87,220.44C143.405,253.571 171.681,278.995 205,279C238.321,278.999 266.6,253.573 270.13,220.44L270.5,220.44L270.5,132.45C270.473,127.806 266.644,124 262,124L148,124Z" style="fill:rgb(232,56,56);fill-rule:nonzero;"/>
        </g>
        <g transform="matrix(0.284104,0,0,0.284104,324.035,164.097)">
            <path d="M166.3,146C161.802,146 158.1,149.702 158.1,154.2L158.1,215L158.36,215C160.86,238.751 181.118,256.994 205,257C228.884,256.994 249.146,238.752 251.65,215L251.91,215L251.91,154.15C251.91,149.652 248.208,145.95 243.71,145.95L166.3,146Z" style="fill:white;fill-rule:nonzero;"/>
        </g>
        <g transform="matrix(0.284104,0,0,0.284104,324.035,164.097)">
            <path d="M195.59,155.45C194.493,155.45 193.59,156.353 193.59,157.45L193.59,172.25L193.66,172.25C194.275,178.019 199.198,182.447 205,182.45C210.806,182.452 215.734,178.023 216.35,172.25L216.41,172.25L216.41,157.45C216.41,156.353 215.507,155.45 214.41,155.45L195.59,155.45Z" style="fill:rgb(62,67,109);fill-rule:nonzero;"/>
            <path d="M195.59,222.37C194.493,222.37 193.59,223.273 193.59,224.37L193.59,239.18L193.66,239.18C194.28,244.945 199.201,249.368 205,249.37C210.806,249.372 215.734,244.943 216.35,239.17L216.41,239.17L216.41,224.36C216.41,223.263 215.507,222.36 214.41,222.36L195.59,222.37Z" style="fill:rgb(62,67,109);fill-rule:nonzero;"/>
            <path d="M195.59,188C194.493,188 193.59,188.903 193.59,190L193.59,204.8L193.66,204.8C194.275,210.569 199.198,214.997 205,215C210.806,215.002 215.734,210.573 216.35,204.8L216.41,204.8L216.41,190C216.41,188.903 215.507,188 214.41,188L195.59,188Z" style="fill:rgb(62,67,109);fill-rule:nonzero;"/>
            <path d="M168.59,188C167.493,188 166.59,188.903 166.59,190L166.59,204.8L166.66,204.8C167.275,210.569 172.198,214.997 178,215C183.806,215.002 188.734,210.573 189.35,204.8L189.41,204.8L189.41,190C189.41,188.903 188.507,188 187.41,188L168.59,188Z" style="fill:rgb(62,67,109);fill-rule:nonzero;"/>
            <path d="M223.09,188C221.993,188 221.09,188.903 221.09,190L221.09,204.8L221.16,204.8C221.775,210.569 226.698,214.997 232.5,215C238.306,215.002 243.234,210.573 243.85,204.8L243.91,204.8L243.91,190C243.91,188.903 243.007,188 241.91,188L223.09,188Z" style="fill:rgb(62,67,109);fill-rule:nonzero;"/>
        </g>
        <g transform="matrix(0.284104,0,0,0.284104,324.035,164.097)">
            <path d="M205,5.08L205,27.22C118.687,70.647 64.005,159.372 64.005,255.995C64.005,352.618 118.687,441.343 205,484.77L205,506.91C88.05,483.27 0,379.91 0,256C0,132.09 88.05,28.72 205,5.08Z" style="fill:rgb(3,124,60);fill-rule:nonzero;"/>
        </g>
        <g transform="matrix(0.284104,0,0,0.284104,324.035,164.097)">
            <path d="M269,5.08C246.774,9.569 225.249,17.015 205,27.22L205,5.08C220.152,2.036 235.548,0.362 251,0.08L261,0.08C270.027,0.254 279.039,0.895 288,2C281.6,2.77 275.26,3.82 269,5.08Z" style="fill:rgb(196,28,28);fill-rule:nonzero;"/>
        </g>
        <g transform="matrix(0.284104,0,0,0.284104,324.035,164.097)">
            <path d="M269,506.91C275.24,508.17 281.58,509.21 288,510.01C278.845,511.166 269.636,511.83 260.41,512L251.59,512C235.94,511.751 220.346,510.077 205,507L205,484.77C225.249,494.975 246.774,502.421 269,506.91Z" style="fill:rgb(196,28,28);fill-rule:nonzero;"/>
        </g>
    </g>
</svg>
