<?xml version="1.0" encoding="UTF-8" standalone="no"?>
<!DOCTYPE svg PUBLIC "-//W3C//DTD SVG 1.1//EN" "http://www.w3.org/Graphics/SVG/1.1/DTD/svg11.dtd">
<svg width="100%" height="100%" viewBox="0 0 1920 512" version="1.1" xmlns="http://www.w3.org/2000/svg" xmlns:xlink="http://www.w3.org/1999/xlink" xml:space="preserve" xmlns:serif="http://www.serif.com/" style="fill-rule:evenodd;clip-rule:evenodd;stroke-linejoin:round;stroke-miterlimit:2;">
    <g id="Page-1">
        <g id="_004---Mail" serif:id="004---Mail">
            <path id="Shape" d="M308.966,97.103C304.09,97.103 300.138,93.151 300.138,88.276L300.138,52.966C300.138,48.09 304.09,44.138 308.966,44.138C313.841,44.138 317.793,48.09 317.793,52.966L317.793,88.276C317.793,93.151 313.841,97.103 308.966,97.103Z" style="fill:rgb(149,165,165);fill-rule:nonzero;"/>
            <path id="Shape1" serif:id="Shape" d="M308.966,0L379.586,0C384.462,0 388.414,3.952 388.414,8.828L388.414,44.138C388.414,49.013 384.462,52.966 379.586,52.966L300.138,52.966L300.138,8.828C300.138,3.952 304.09,0 308.966,0Z" style="fill:rgb(240,196,25);fill-rule:nonzero;"/>
            <path id="Shape2" serif:id="Shape" d="M351.144,512L275.615,512C270.088,512.386 265.278,508.253 264.828,502.731L264.828,326.621L361.931,326.621L361.931,502.731C361.48,508.253 356.671,512.386 351.144,512Z" style="fill:rgb(165,106,67);fill-rule:nonzero;"/>
            <path id="Shape3" serif:id="Shape" d="M308.966,485.517C304.09,485.517 300.138,481.565 300.138,476.69L300.138,335.448C300.138,330.573 304.09,326.621 308.966,326.621C313.841,326.621 317.793,330.573 317.793,335.448L317.793,476.69C317.793,481.565 313.841,485.517 308.966,485.517Z" style="fill:rgb(128,83,51);fill-rule:nonzero;"/>
            <path id="Shape4" serif:id="Shape" d="M256,335.448L503.172,335.448C508.048,335.448 512,331.496 512,326.621L512,185.379C512,131.751 468.525,88.276 414.897,88.276L167.724,88.276L256,335.448Z" style="fill:rgb(201,166,113);fill-rule:nonzero;"/>
            <g id="Rectangle-path" transform="matrix(0.796051,0,0,0.258099,0.339403,-34.4649)">
                <path d="M476.69,273.655C476.69,259.039 472.842,247.172 468.103,247.172L397,247.172C392.261,247.172 388.414,259.039 388.414,273.655C388.414,288.271 392.261,300.138 397,300.138L468.103,300.138C472.842,300.138 476.69,288.271 476.69,273.655Z" style="fill:rgb(219,27,27);"/>
            </g>
            <g id="Rectangle-path1" serif:id="Rectangle-path" transform="matrix(0.796051,0,0,0.100042,0.339403,-15.3976)">
                <path d="M476.69,273.655C476.69,259.039 475.198,247.172 473.361,247.172L391.742,247.172C389.905,247.172 388.414,259.039 388.414,273.655C388.414,288.271 389.905,300.138 391.742,300.138L473.361,300.138C475.198,300.138 476.69,288.271 476.69,273.655Z" style="fill:rgb(2,147,77);"/>
            </g>
            <g id="Rectangle-path2" serif:id="Rectangle-path" transform="matrix(0.796051,0,0,0.100042,0.339403,-5.39763)">
                <path d="M476.69,273.655C476.69,259.039 475.198,247.172 473.361,247.172L391.742,247.172C389.905,247.172 388.414,259.039 388.414,273.655C388.414,288.271 389.905,300.138 391.742,300.138L473.361,300.138C475.198,300.138 476.69,288.271 476.69,273.655Z" style="fill:rgb(2,147,77);"/>
            </g>
            <path d="M79.846,335.448C74.97,335.448 71.018,331.496 71.018,326.621L71.018,185.379C71.018,182.553 71.139,179.755 71.403,176.986L71.018,176.552C75.582,126.55 117.514,88.273 167.724,88.276L167.923,88.281C143.162,88.327 120.576,97.643 103.453,112.944C120.573,97.645 143.16,88.328 167.923,88.281L168.121,88.276C218.331,88.273 260.263,126.55 264.828,176.552L264.57,178.65L264.586,178.858C264.755,181.011 264.828,183.187 264.828,185.379L264.828,326.621C264.828,331.496 260.875,335.448 256,335.448L79.846,335.448Z" style="fill:rgb(125,90,38);"/>
            <g id="Shape5" serif:id="Shape" transform="matrix(0.956859,0.290553,-0.290553,0.956859,93.4658,-71.162)">
                <path d="M226.604,184.497C223.339,179.538 217.799,176.553 211.862,176.552L17.655,176.552C7.904,176.552 0,184.456 0,194.207L0,317.793C0.035,322.682 2.077,327.343 5.65,330.681C8.874,333.779 13.184,335.49 17.655,335.448L211.862,335.448C216.333,335.49 220.643,333.779 223.868,330.681C227.44,327.343 229.483,322.682 229.517,317.793L229.517,194.207C229.516,190.755 228.504,187.379 226.604,184.497Z" style="fill:rgb(243,213,91);fill-rule:nonzero;"/>
            </g>
            <g id="Shape6" serif:id="Shape" transform="matrix(0.956859,0.290553,-0.290553,0.956859,93.4658,-71.162)">
                <path d="M90.659,258.737L5.65,330.681C2.077,327.343 0.035,322.682 0,317.793L0,194.207C0.001,190.755 1.014,187.379 2.913,184.497L90.659,258.737Z" style="fill:rgb(240,196,25);fill-rule:nonzero;"/>
            </g>
            <g id="Shape7" serif:id="Shape" transform="matrix(0.956859,0.290553,-0.290553,0.956859,93.4658,-71.162)">
                <path d="M223.868,330.681C220.643,333.779 216.333,335.49 211.862,335.448L17.655,335.448C13.184,335.49 8.874,333.779 5.65,330.681L90.659,258.737L103.371,269.506C109.948,275.057 119.569,275.057 126.146,269.506L138.858,258.737L223.868,330.681Z" style="fill:rgb(242,156,31);fill-rule:nonzero;"/>
            </g>
            <g id="Shape8" serif:id="Shape" transform="matrix(0.956859,0.290553,-0.290553,0.956859,93.4658,-71.162)">
                <path d="M229.517,194.207L229.517,317.793C229.483,322.682 227.44,327.343 223.868,330.681L138.858,258.737L226.604,184.497C228.504,187.379 229.516,190.755 229.517,194.207Z" style="fill:rgb(240,196,25);fill-rule:nonzero;"/>
            </g>
        </g>
        <g transform="matrix(0.284104,0,0,0.284104,324.035,164.097)">
            <circle cx="256" cy="256" r="256" style="fill:rgb(39,39,61);"/>
        </g>
        <g transform="matrix(0.284104,0,0,0.284104,324.035,164.097)">
            <path d="M205,5.08L205,506.91C88.05,483.27 0,379.91 0,256C0,132.09 88.05,28.72 205,5.08Z" style="fill:rgb(2,147,77);fill-rule:nonzero;"/>
        </g>
        <g transform="matrix(0.284104,0,0,0.284104,324.035,164.097)">
            <path d="M512,256C512,395.92 399.77,509.61 260.41,512L251.59,512C235.94,511.751 220.346,510.077 205,507L205,5.08C220.152,2.036 235.548,0.362 251,0.08L261,0.08C400.06,2.68 512,116.27 512,256Z" style="fill:rgb(219,27,27);fill-rule:nonzero;"/>
        </g>
        <g transform="matrix(0.284104,0,0,0.284104,324.035,164.097)">
            <path d="M205,88.46C145.479,88.46 96.5,137.439 96.5,196.96C96.5,256.481 145.479,305.46 205,305.46C264.506,305.46 313.478,256.506 313.5,197C313.451,137.49 264.51,88.531 205,88.46ZM298.2,189.46L223.11,189.46L224.61,187.96L251.91,160.65L276.17,136.39C288.929,151.309 296.643,169.891 298.2,189.46ZM212.5,103.76C231.156,105.25 248.935,112.337 263.5,124.09L265.5,125.77L212.5,178.84L212.5,103.76ZM197.5,103.76L197.5,178.84L194.8,176.15L164.8,146.1L144.48,125.77L146.48,124.09C161.05,112.333 178.837,105.246 197.5,103.76ZM133.83,136.39L158.1,160.65L185.4,188L186.9,189.5L111.8,189.5C113.353,169.918 121.067,151.322 133.83,136.39ZM111.8,204.46L186.93,204.46L176.53,214.85L162.2,229.17L147.2,244.17L133.87,257.51C121.111,242.595 113.385,224.024 111.8,204.46ZM197.53,290.15C177.97,288.591 159.394,280.889 144.47,268.15L155.87,256.74L170.62,242L197.5,215.1L197.53,290.15ZM212.53,290.15L212.53,215.05L265.6,268.13C250.667,280.884 232.076,288.594 212.5,290.15L212.53,290.15ZM276.2,257.52L247.87,229.18L233.56,214.9L223.11,204.46L298.2,204.46C296.633,224.023 288.92,242.6 276.17,257.52L276.2,257.52Z" style="fill:rgb(246,199,82);fill-rule:nonzero;"/>
        </g>
        <g transform="matrix(0.284104,0,0,0.284104,324.035,164.097)">
            <path d="M148,124C143.339,124.005 139.505,127.839 139.5,132.5L139.5,220.44L139.87,220.44C143.405,253.571 171.681,278.995 205,279C238.321,278.999 266.6,253.573 270.13,220.44L270.5,220.44L270.5,132.45C270.473,127.806 266.644,124 262,124L148,124Z" style="fill:rgb(232,56,56);fill-rule:nonzero;"/>
        </g>
        <g transform="matrix(0.284104,0,0,0.284104,324.035,164.097)">
            <path d="M166.3,146C161.802,146 158.1,149.702 158.1,154.2L158.1,215L158.36,215C160.86,238.751 181.118,256.994 205,257C228.884,256.994 249.146,238.752 251.65,215L251.91,215L251.91,154.15C251.91,149.652 248.208,145.95 243.71,145.95L166.3,146Z" style="fill:white;fill-rule:nonzero;"/>
        </g>
        <g transform="matrix(0.284104,0,0,0.284104,324.035,164.097)">
            <path d="M195.59,155.45C194.493,155.45 193.59,156.353 193.59,157.45L193.59,172.25L193.66,172.25C194.275,178.019 199.198,182.447 205,182.45C210.806,182.452 215.734,178.023 216.35,172.25L216.41,172.25L216.41,157.45C216.41,156.353 215.507,155.45 214.41,155.45L195.59,155.45Z" style="fill:rgb(62,67,109);fill-rule:nonzero;"/>
            <path d="M195.59,222.37C194.493,222.37 193.59,223.273 193.59,224.37L193.59,239.18L193.66,239.18C194.28,244.945 199.201,249.368 205,249.37C210.806,249.372 215.734,244.943 216.35,239.17L216.41,239.17L216.41,224.36C216.41,223.263 215.507,222.36 214.41,222.36L195.59,222.37Z" style="fill:rgb(62,67,109);fill-rule:nonzero;"/>
            <path d="M195.59,188C194.493,188 193.59,188.903 193.59,190L193.59,204.8L193.66,204.8C194.275,210.569 199.198,214.997 205,215C210.806,215.002 215.734,210.573 216.35,204.8L216.41,204.8L216.41,190C216.41,188.903 215.507,188 214.41,188L195.59,188Z" style="fill:rgb(62,67,109);fill-rule:nonzero;"/>
            <path d="M168.59,188C167.493,188 166.59,188.903 166.59,190L166.59,204.8L166.66,204.8C167.275,210.569 172.198,214.997 178,215C183.806,215.002 188.734,210.573 189.35,204.8L189.41,204.8L189.41,190C189.41,188.903 188.507,188 187.41,188L168.59,188Z" style="fill:rgb(62,67,109);fill-rule:nonzero;"/>
            <path d="M223.09,188C221.993,188 221.09,188.903 221.09,190L221.09,204.8L221.16,204.8C221.775,210.569 226.698,214.997 232.5,215C238.306,215.002 243.234,210.573 243.85,204.8L243.91,204.8L243.91,190C243.91,188.903 243.007,188 241.91,188L223.09,188Z" style="fill:rgb(62,67,109);fill-rule:nonzero;"/>
        </g>
        <g transform="matrix(0.284104,0,0,0.284104,324.035,164.097)">
            <path d="M205,5.08L205,27.22C118.687,70.647 64.005,159.372 64.005,255.995C64.005,352.618 118.687,441.343 205,484.77L205,506.91C88.05,483.27 0,379.91 0,256C0,132.09 88.05,28.72 205,5.08Z" style="fill:rgb(3,124,60);fill-rule:nonzero;"/>
        </g>
        <g transform="matrix(0.284104,0,0,0.284104,324.035,164.097)">
            <path d="M269,5.08C246.774,9.569 225.249,17.015 205,27.22L205,5.08C220.152,2.036 235.548,0.362 251,0.08L261,0.08C270.027,0.254 279.039,0.895 288,2C281.6,2.77 275.26,3.82 269,5.08Z" style="fill:rgb(196,28,28);fill-rule:nonzero;"/>
        </g>
        <g transform="matrix(0.284104,0,0,0.284104,324.035,164.097)">
            <path d="M269,506.91C275.24,508.17 281.58,509.21 288,510.01C278.845,511.166 269.636,511.83 260.41,512L251.59,512C235.94,511.751 220.346,510.077 205,507L205,484.77C225.249,494.975 246.774,502.421 269,506.91Z" style="fill:rgb(196,28,28);fill-rule:nonzero;"/>
        </g>
        <g transform="matrix(1,0,0,1.30706,-9.4272,-9.75805)">
            <g transform="matrix(200,0,0,153.015,577.381,178.422)">
                <path d="M0.453,-0.563C0.46,-0.575 0.466,-0.583 0.473,-0.588C0.48,-0.593 0.489,-0.595 0.499,-0.595C0.515,-0.595 0.526,-0.591 0.533,-0.583C0.54,-0.574 0.543,-0.56 0.543,-0.539L0.544,-0.412C0.544,-0.39 0.54,-0.375 0.533,-0.367C0.526,-0.359 0.512,-0.355 0.493,-0.355C0.479,-0.355 0.469,-0.358 0.462,-0.365C0.454,-0.371 0.448,-0.383 0.443,-0.401C0.434,-0.432 0.421,-0.454 0.402,-0.468C0.384,-0.481 0.358,-0.488 0.325,-0.488C0.275,-0.488 0.237,-0.471 0.21,-0.437C0.183,-0.403 0.17,-0.354 0.17,-0.29C0.17,-0.226 0.183,-0.177 0.21,-0.143C0.237,-0.109 0.276,-0.092 0.326,-0.092C0.36,-0.092 0.398,-0.103 0.439,-0.126C0.48,-0.149 0.506,-0.16 0.517,-0.16C0.53,-0.16 0.54,-0.155 0.549,-0.144C0.558,-0.133 0.562,-0.12 0.562,-0.104C0.562,-0.075 0.537,-0.048 0.486,-0.023C0.436,0.002 0.379,0.015 0.316,0.015C0.231,0.015 0.162,-0.013 0.109,-0.069C0.056,-0.126 0.03,-0.199 0.03,-0.29C0.03,-0.378 0.056,-0.45 0.11,-0.508C0.163,-0.566 0.231,-0.595 0.313,-0.595C0.336,-0.595 0.359,-0.593 0.381,-0.587C0.404,-0.582 0.428,-0.574 0.453,-0.563Z" style="fill-rule:nonzero;"/>
            </g>
            <g transform="matrix(200,0,0,153.015,697.401,178.422)">
                <path d="M0.3,-0.359C0.262,-0.359 0.23,-0.346 0.206,-0.322C0.181,-0.297 0.169,-0.265 0.169,-0.226C0.169,-0.187 0.181,-0.155 0.206,-0.129C0.23,-0.104 0.262,-0.091 0.3,-0.091C0.338,-0.091 0.369,-0.104 0.394,-0.129C0.419,-0.155 0.431,-0.187 0.431,-0.226C0.431,-0.265 0.419,-0.297 0.394,-0.322C0.37,-0.346 0.338,-0.359 0.3,-0.359ZM0.3,-0.462C0.379,-0.462 0.443,-0.44 0.492,-0.396C0.541,-0.351 0.566,-0.294 0.566,-0.225C0.566,-0.155 0.541,-0.098 0.492,-0.054C0.443,-0.01 0.379,0.012 0.3,0.012C0.221,0.012 0.157,-0.01 0.108,-0.054C0.059,-0.098 0.034,-0.155 0.034,-0.225C0.034,-0.294 0.059,-0.351 0.108,-0.396C0.157,-0.44 0.221,-0.462 0.3,-0.462ZM0.212,-0.493L0.195,-0.531L0.428,-0.667C0.429,-0.668 0.43,-0.668 0.432,-0.668C0.433,-0.669 0.435,-0.669 0.436,-0.669C0.44,-0.669 0.444,-0.668 0.448,-0.665C0.453,-0.662 0.456,-0.659 0.458,-0.654L0.478,-0.612C0.478,-0.611 0.478,-0.611 0.479,-0.61C0.48,-0.608 0.48,-0.606 0.48,-0.604C0.48,-0.599 0.479,-0.595 0.477,-0.592C0.474,-0.588 0.471,-0.586 0.467,-0.584L0.212,-0.493Z" style="fill-rule:nonzero;"/>
            </g>
            <g transform="matrix(200,0,0,153.015,817.42,178.422)">
                <path d="M0.508,-0.107L0.516,-0.107C0.534,-0.107 0.547,-0.102 0.556,-0.094C0.564,-0.085 0.569,-0.071 0.569,-0.054C0.569,-0.035 0.564,-0.021 0.555,-0.013C0.546,-0.004 0.53,0 0.508,0L0.433,0C0.424,0 0.416,-0.002 0.411,-0.006C0.406,-0.009 0.404,-0.014 0.404,-0.021L0.404,-0.055C0.388,-0.033 0.367,-0.017 0.342,-0.005C0.317,0.006 0.289,0.012 0.258,0.012C0.194,0.012 0.141,-0.01 0.098,-0.053C0.055,-0.096 0.033,-0.151 0.033,-0.216C0.033,-0.284 0.055,-0.34 0.098,-0.384C0.142,-0.429 0.197,-0.451 0.264,-0.451C0.287,-0.451 0.31,-0.447 0.332,-0.44C0.354,-0.432 0.374,-0.421 0.392,-0.407L0.392,-0.531L0.327,-0.531C0.305,-0.531 0.289,-0.535 0.279,-0.544C0.27,-0.552 0.265,-0.566 0.265,-0.585C0.265,-0.604 0.27,-0.618 0.279,-0.626C0.289,-0.635 0.305,-0.639 0.327,-0.639L0.479,-0.639C0.49,-0.639 0.498,-0.637 0.502,-0.632C0.506,-0.628 0.508,-0.619 0.508,-0.607L0.508,-0.107ZM0.279,-0.347C0.247,-0.347 0.22,-0.335 0.199,-0.311C0.178,-0.287 0.168,-0.257 0.168,-0.22C0.168,-0.182 0.178,-0.152 0.199,-0.128C0.22,-0.104 0.247,-0.092 0.279,-0.092C0.311,-0.092 0.338,-0.104 0.359,-0.128C0.38,-0.152 0.39,-0.183 0.39,-0.22C0.39,-0.257 0.38,-0.287 0.358,-0.311C0.337,-0.335 0.311,-0.347 0.279,-0.347Z" style="fill-rule:nonzero;"/>
            </g>
            <g transform="matrix(200,0,0,153.015,937.44,178.422)">
                <path d="M0.368,-0.107L0.473,-0.107C0.496,-0.107 0.512,-0.103 0.521,-0.095C0.53,-0.087 0.535,-0.073 0.535,-0.054C0.535,-0.035 0.53,-0.021 0.521,-0.013C0.511,-0.004 0.495,0 0.473,0L0.143,0C0.121,0 0.105,-0.004 0.095,-0.013C0.086,-0.021 0.081,-0.035 0.081,-0.054C0.081,-0.073 0.086,-0.087 0.095,-0.095C0.104,-0.103 0.12,-0.107 0.143,-0.107L0.248,-0.107L0.248,-0.344L0.193,-0.344C0.171,-0.344 0.155,-0.348 0.146,-0.357C0.137,-0.365 0.132,-0.379 0.132,-0.398C0.132,-0.417 0.136,-0.431 0.146,-0.439C0.155,-0.447 0.17,-0.451 0.193,-0.451L0.34,-0.451C0.349,-0.451 0.356,-0.449 0.361,-0.446C0.366,-0.442 0.368,-0.437 0.368,-0.43L0.368,-0.107ZM0.298,-0.672C0.322,-0.672 0.337,-0.667 0.345,-0.658C0.353,-0.649 0.357,-0.627 0.357,-0.593C0.357,-0.56 0.353,-0.539 0.346,-0.531C0.339,-0.523 0.323,-0.519 0.297,-0.519C0.271,-0.519 0.255,-0.523 0.248,-0.53C0.24,-0.538 0.237,-0.553 0.237,-0.575C0.237,-0.617 0.241,-0.643 0.248,-0.655C0.256,-0.666 0.272,-0.672 0.298,-0.672Z" style="fill-rule:nonzero;"/>
            </g>
            <g transform="matrix(200,0,0,153.015,1057.46,178.422)">
                <path d="M0.279,-0.36C0.247,-0.36 0.22,-0.348 0.199,-0.325C0.178,-0.302 0.168,-0.273 0.168,-0.237C0.168,-0.202 0.178,-0.173 0.199,-0.15C0.22,-0.127 0.247,-0.115 0.279,-0.115C0.311,-0.115 0.338,-0.127 0.359,-0.15C0.38,-0.173 0.39,-0.202 0.39,-0.237C0.39,-0.273 0.38,-0.302 0.359,-0.325C0.338,-0.348 0.311,-0.36 0.279,-0.36ZM0.4,-0.406L0.4,-0.431C0.4,-0.438 0.402,-0.443 0.407,-0.446C0.412,-0.449 0.419,-0.451 0.428,-0.451L0.508,-0.451C0.53,-0.451 0.546,-0.447 0.555,-0.439C0.564,-0.43 0.569,-0.417 0.569,-0.398C0.569,-0.38 0.564,-0.367 0.555,-0.358C0.546,-0.349 0.533,-0.344 0.516,-0.344L0.508,-0.344L0.508,-0.008C0.508,0.063 0.488,0.115 0.45,0.147C0.411,0.18 0.349,0.196 0.263,0.196C0.21,0.196 0.171,0.191 0.146,0.18C0.121,0.17 0.109,0.153 0.109,0.131C0.109,0.115 0.114,0.103 0.124,0.093C0.134,0.083 0.147,0.078 0.164,0.078C0.168,0.078 0.182,0.08 0.206,0.083C0.23,0.085 0.252,0.087 0.272,0.087C0.319,0.087 0.351,0.078 0.368,0.061C0.386,0.043 0.395,0.011 0.395,-0.034L0.395,-0.056C0.372,-0.043 0.349,-0.033 0.326,-0.027C0.304,-0.02 0.28,-0.017 0.256,-0.017C0.19,-0.017 0.137,-0.038 0.095,-0.078C0.054,-0.119 0.033,-0.172 0.033,-0.236C0.033,-0.302 0.055,-0.356 0.098,-0.399C0.142,-0.442 0.197,-0.463 0.265,-0.463C0.294,-0.463 0.32,-0.458 0.342,-0.449C0.364,-0.44 0.384,-0.425 0.4,-0.406Z" style="fill-rule:nonzero;"/>
            </g>
            <g transform="matrix(200,0,0,153.015,1177.48,178.422)">
                <path d="M0.3,-0.359C0.262,-0.359 0.23,-0.346 0.206,-0.322C0.181,-0.297 0.169,-0.265 0.169,-0.226C0.169,-0.187 0.181,-0.155 0.206,-0.129C0.23,-0.104 0.262,-0.091 0.3,-0.091C0.338,-0.091 0.369,-0.104 0.394,-0.129C0.419,-0.155 0.431,-0.187 0.431,-0.226C0.431,-0.265 0.419,-0.297 0.394,-0.322C0.37,-0.346 0.338,-0.359 0.3,-0.359ZM0.3,-0.462C0.379,-0.462 0.443,-0.44 0.492,-0.396C0.541,-0.351 0.566,-0.294 0.566,-0.225C0.566,-0.155 0.541,-0.098 0.492,-0.054C0.443,-0.01 0.379,0.012 0.3,0.012C0.221,0.012 0.157,-0.01 0.108,-0.054C0.059,-0.098 0.034,-0.155 0.034,-0.225C0.034,-0.294 0.059,-0.351 0.108,-0.396C0.157,-0.44 0.221,-0.462 0.3,-0.462Z" style="fill-rule:nonzero;"/>
            </g>
            <g transform="matrix(200,0,0,153.015,1297.5,178.422)">
                <path d="M0.171,-0.007C0.162,0 0.154,0.005 0.145,0.008C0.136,0.011 0.127,0.013 0.117,0.013C0.103,0.013 0.093,0.009 0.088,0.002C0.082,-0.006 0.079,-0.02 0.079,-0.04L0.079,-0.105C0.079,-0.126 0.083,-0.142 0.09,-0.151C0.097,-0.16 0.109,-0.164 0.127,-0.164C0.146,-0.164 0.162,-0.155 0.174,-0.136C0.181,-0.126 0.187,-0.119 0.192,-0.114C0.208,-0.099 0.226,-0.089 0.248,-0.082C0.269,-0.074 0.293,-0.071 0.32,-0.071C0.343,-0.071 0.362,-0.075 0.376,-0.084C0.39,-0.094 0.397,-0.105 0.397,-0.12C0.397,-0.146 0.359,-0.165 0.284,-0.175C0.268,-0.177 0.255,-0.179 0.245,-0.18C0.188,-0.188 0.146,-0.203 0.119,-0.226C0.091,-0.249 0.077,-0.28 0.077,-0.319C0.077,-0.365 0.094,-0.4 0.127,-0.425C0.16,-0.45 0.208,-0.463 0.269,-0.463C0.29,-0.463 0.312,-0.461 0.334,-0.458C0.357,-0.454 0.379,-0.449 0.403,-0.442C0.41,-0.45 0.417,-0.456 0.425,-0.46C0.432,-0.464 0.441,-0.466 0.45,-0.466C0.464,-0.466 0.474,-0.462 0.481,-0.453C0.488,-0.445 0.491,-0.433 0.491,-0.416L0.491,-0.356C0.491,-0.342 0.488,-0.331 0.48,-0.323C0.473,-0.316 0.463,-0.312 0.45,-0.312C0.437,-0.312 0.414,-0.324 0.382,-0.347C0.349,-0.37 0.317,-0.382 0.284,-0.382C0.259,-0.382 0.239,-0.378 0.225,-0.369C0.211,-0.361 0.204,-0.35 0.204,-0.335C0.204,-0.312 0.233,-0.297 0.292,-0.289C0.309,-0.287 0.322,-0.285 0.332,-0.284C0.406,-0.273 0.456,-0.257 0.484,-0.236C0.511,-0.215 0.525,-0.183 0.525,-0.141C0.525,-0.092 0.507,-0.054 0.47,-0.027C0.434,0 0.383,0.013 0.316,0.013C0.29,0.013 0.265,0.011 0.241,0.008C0.217,0.005 0.193,0 0.171,-0.007Z" style="fill-rule:nonzero;"/>
            </g>
            <g transform="matrix(200,0,0,153.015,577.381,331.437)">
                <path d="M0.234,-0.207L0.234,-0.107L0.284,-0.107C0.305,-0.107 0.32,-0.103 0.329,-0.095C0.338,-0.087 0.343,-0.073 0.343,-0.054C0.343,-0.035 0.338,-0.021 0.329,-0.013C0.32,-0.004 0.305,0 0.284,0L0.115,0C0.094,0 0.078,-0.004 0.069,-0.013C0.06,-0.021 0.055,-0.035 0.055,-0.054C0.055,-0.071 0.06,-0.085 0.068,-0.094C0.077,-0.102 0.09,-0.107 0.107,-0.107L0.115,-0.107L0.115,-0.471L0.107,-0.471C0.09,-0.471 0.078,-0.476 0.069,-0.485C0.06,-0.494 0.055,-0.508 0.055,-0.525C0.055,-0.544 0.06,-0.558 0.069,-0.566C0.079,-0.575 0.094,-0.579 0.115,-0.579L0.317,-0.579C0.397,-0.579 0.457,-0.564 0.498,-0.533C0.539,-0.503 0.559,-0.458 0.559,-0.398C0.559,-0.335 0.539,-0.288 0.498,-0.255C0.457,-0.223 0.397,-0.207 0.317,-0.207L0.234,-0.207ZM0.234,-0.471L0.234,-0.317L0.303,-0.317C0.342,-0.317 0.371,-0.323 0.39,-0.336C0.409,-0.349 0.419,-0.369 0.419,-0.395C0.419,-0.419 0.409,-0.438 0.389,-0.451C0.369,-0.465 0.34,-0.471 0.303,-0.471L0.234,-0.471Z" style="fill-rule:nonzero;"/>
            </g>
            <g transform="matrix(200,0,0,153.015,697.401,331.437)">
                <path d="M0.3,-0.359C0.262,-0.359 0.23,-0.346 0.206,-0.322C0.181,-0.297 0.169,-0.265 0.169,-0.226C0.169,-0.187 0.181,-0.155 0.206,-0.129C0.23,-0.104 0.262,-0.091 0.3,-0.091C0.338,-0.091 0.369,-0.104 0.394,-0.129C0.419,-0.155 0.431,-0.187 0.431,-0.226C0.431,-0.265 0.419,-0.297 0.394,-0.322C0.37,-0.346 0.338,-0.359 0.3,-0.359ZM0.3,-0.462C0.379,-0.462 0.443,-0.44 0.492,-0.396C0.541,-0.351 0.566,-0.294 0.566,-0.225C0.566,-0.155 0.541,-0.098 0.492,-0.054C0.443,-0.01 0.379,0.012 0.3,0.012C0.221,0.012 0.157,-0.01 0.108,-0.054C0.059,-0.098 0.034,-0.155 0.034,-0.225C0.034,-0.294 0.059,-0.351 0.108,-0.396C0.157,-0.44 0.221,-0.462 0.3,-0.462Z" style="fill-rule:nonzero;"/>
            </g>
            <g transform="matrix(200,0,0,153.015,817.42,331.437)">
                <path d="M0.171,-0.007C0.162,0 0.154,0.005 0.145,0.008C0.136,0.011 0.127,0.013 0.117,0.013C0.103,0.013 0.093,0.009 0.088,0.002C0.082,-0.006 0.079,-0.02 0.079,-0.04L0.079,-0.105C0.079,-0.126 0.083,-0.142 0.09,-0.151C0.097,-0.16 0.109,-0.164 0.127,-0.164C0.146,-0.164 0.162,-0.155 0.174,-0.136C0.181,-0.126 0.187,-0.119 0.192,-0.114C0.208,-0.099 0.226,-0.089 0.248,-0.082C0.269,-0.074 0.293,-0.071 0.32,-0.071C0.343,-0.071 0.362,-0.075 0.376,-0.084C0.39,-0.094 0.397,-0.105 0.397,-0.12C0.397,-0.146 0.359,-0.165 0.284,-0.175C0.268,-0.177 0.255,-0.179 0.245,-0.18C0.188,-0.188 0.146,-0.203 0.119,-0.226C0.091,-0.249 0.077,-0.28 0.077,-0.319C0.077,-0.365 0.094,-0.4 0.127,-0.425C0.16,-0.45 0.208,-0.463 0.269,-0.463C0.29,-0.463 0.312,-0.461 0.334,-0.458C0.357,-0.454 0.379,-0.449 0.403,-0.442C0.41,-0.45 0.417,-0.456 0.425,-0.46C0.432,-0.464 0.441,-0.466 0.45,-0.466C0.464,-0.466 0.474,-0.462 0.481,-0.453C0.488,-0.445 0.491,-0.433 0.491,-0.416L0.491,-0.356C0.491,-0.342 0.488,-0.331 0.48,-0.323C0.473,-0.316 0.463,-0.312 0.45,-0.312C0.437,-0.312 0.414,-0.324 0.382,-0.347C0.349,-0.37 0.317,-0.382 0.284,-0.382C0.259,-0.382 0.239,-0.378 0.225,-0.369C0.211,-0.361 0.204,-0.35 0.204,-0.335C0.204,-0.312 0.233,-0.297 0.292,-0.289C0.309,-0.287 0.322,-0.285 0.332,-0.284C0.406,-0.273 0.456,-0.257 0.484,-0.236C0.511,-0.215 0.525,-0.183 0.525,-0.141C0.525,-0.092 0.507,-0.054 0.47,-0.027C0.434,0 0.383,0.013 0.316,0.013C0.29,0.013 0.265,0.011 0.241,0.008C0.217,0.005 0.193,0 0.171,-0.007Z" style="fill-rule:nonzero;"/>
            </g>
            <g transform="matrix(200,0,0,153.015,937.44,331.437)">
                <path d="M0.266,-0.424L0.415,-0.424C0.438,-0.424 0.453,-0.42 0.463,-0.412C0.472,-0.403 0.477,-0.39 0.477,-0.371C0.477,-0.352 0.472,-0.338 0.463,-0.33C0.453,-0.321 0.437,-0.317 0.415,-0.317L0.266,-0.317L0.266,-0.192C0.266,-0.157 0.271,-0.133 0.282,-0.12C0.293,-0.107 0.312,-0.1 0.339,-0.1C0.364,-0.1 0.394,-0.107 0.429,-0.122C0.463,-0.137 0.486,-0.144 0.498,-0.144C0.511,-0.144 0.523,-0.139 0.532,-0.128C0.542,-0.118 0.547,-0.105 0.547,-0.09C0.547,-0.065 0.524,-0.042 0.479,-0.021C0.433,-0.001 0.382,0.01 0.324,0.01C0.291,0.01 0.261,0.005 0.236,-0.004C0.21,-0.013 0.19,-0.026 0.176,-0.043C0.165,-0.056 0.157,-0.072 0.153,-0.09C0.148,-0.108 0.146,-0.139 0.146,-0.181L0.146,-0.317L0.1,-0.317C0.078,-0.317 0.062,-0.321 0.053,-0.33C0.044,-0.338 0.039,-0.352 0.039,-0.371C0.039,-0.39 0.044,-0.404 0.053,-0.412C0.062,-0.42 0.078,-0.424 0.1,-0.424L0.146,-0.424L0.146,-0.538C0.146,-0.561 0.151,-0.576 0.16,-0.585C0.169,-0.595 0.185,-0.599 0.206,-0.599C0.228,-0.599 0.243,-0.595 0.252,-0.585C0.261,-0.576 0.266,-0.561 0.266,-0.538L0.266,-0.424Z" style="fill-rule:nonzero;"/>
            </g>
            <g transform="matrix(200,0,0,153.015,1057.46,331.437)">
                <path d="M0.499,-0.107L0.507,-0.107C0.524,-0.107 0.538,-0.102 0.547,-0.093C0.556,-0.084 0.561,-0.07 0.561,-0.053C0.561,-0.034 0.556,-0.021 0.547,-0.012C0.537,-0.004 0.521,0 0.499,0L0.453,0C0.437,0 0.425,-0.003 0.417,-0.009C0.409,-0.015 0.402,-0.027 0.397,-0.043C0.37,-0.025 0.341,-0.011 0.311,-0.002C0.281,0.007 0.25,0.012 0.219,0.012C0.167,0.012 0.126,-0.001 0.096,-0.027C0.066,-0.053 0.051,-0.089 0.051,-0.134C0.051,-0.183 0.07,-0.221 0.109,-0.248C0.148,-0.275 0.202,-0.288 0.272,-0.288C0.288,-0.288 0.304,-0.287 0.322,-0.286C0.339,-0.284 0.359,-0.281 0.381,-0.278L0.381,-0.287C0.381,-0.316 0.374,-0.339 0.36,-0.354C0.345,-0.369 0.325,-0.377 0.297,-0.377C0.275,-0.377 0.248,-0.369 0.215,-0.353C0.181,-0.337 0.157,-0.329 0.141,-0.329C0.126,-0.329 0.113,-0.334 0.104,-0.343C0.095,-0.351 0.09,-0.363 0.09,-0.378C0.09,-0.404 0.109,-0.425 0.148,-0.441C0.186,-0.456 0.239,-0.464 0.305,-0.464C0.375,-0.464 0.424,-0.451 0.454,-0.424C0.484,-0.397 0.499,-0.352 0.499,-0.288L0.499,-0.107ZM0.381,-0.201C0.365,-0.205 0.35,-0.207 0.336,-0.209C0.322,-0.211 0.31,-0.212 0.298,-0.212C0.262,-0.212 0.234,-0.206 0.214,-0.194C0.193,-0.182 0.183,-0.165 0.183,-0.144C0.183,-0.125 0.19,-0.111 0.203,-0.101C0.216,-0.091 0.234,-0.086 0.259,-0.086C0.281,-0.086 0.302,-0.089 0.322,-0.096C0.342,-0.102 0.362,-0.112 0.381,-0.126L0.381,-0.201Z" style="fill-rule:nonzero;"/>
            </g>
            <g transform="matrix(200,0,0,153.015,1177.48,331.437)">
                <path d="M0.368,-0.107L0.473,-0.107C0.496,-0.107 0.512,-0.103 0.521,-0.095C0.53,-0.087 0.535,-0.073 0.535,-0.054C0.535,-0.035 0.53,-0.021 0.521,-0.013C0.511,-0.004 0.495,0 0.473,0L0.143,0C0.121,0 0.105,-0.004 0.095,-0.013C0.086,-0.021 0.081,-0.035 0.081,-0.054C0.081,-0.073 0.086,-0.087 0.095,-0.095C0.104,-0.103 0.12,-0.107 0.143,-0.107L0.248,-0.107L0.248,-0.344L0.193,-0.344C0.171,-0.344 0.155,-0.348 0.146,-0.357C0.137,-0.365 0.132,-0.379 0.132,-0.398C0.132,-0.417 0.136,-0.431 0.146,-0.439C0.155,-0.447 0.17,-0.451 0.193,-0.451L0.34,-0.451C0.349,-0.451 0.356,-0.449 0.361,-0.446C0.366,-0.442 0.368,-0.437 0.368,-0.43L0.368,-0.107ZM0.298,-0.672C0.322,-0.672 0.337,-0.667 0.345,-0.658C0.353,-0.649 0.357,-0.627 0.357,-0.593C0.357,-0.56 0.353,-0.539 0.346,-0.531C0.339,-0.523 0.323,-0.519 0.297,-0.519C0.271,-0.519 0.255,-0.523 0.248,-0.53C0.24,-0.538 0.237,-0.553 0.237,-0.575C0.237,-0.617 0.241,-0.643 0.248,-0.655C0.256,-0.666 0.272,-0.672 0.298,-0.672Z" style="fill-rule:nonzero;"/>
            </g>
            <g transform="matrix(200,0,0,153.015,1297.5,331.437)">
                <path d="M0.171,-0.007C0.162,0 0.154,0.005 0.145,0.008C0.136,0.011 0.127,0.013 0.117,0.013C0.103,0.013 0.093,0.009 0.088,0.002C0.082,-0.006 0.079,-0.02 0.079,-0.04L0.079,-0.105C0.079,-0.126 0.083,-0.142 0.09,-0.151C0.097,-0.16 0.109,-0.164 0.127,-0.164C0.146,-0.164 0.162,-0.155 0.174,-0.136C0.181,-0.126 0.187,-0.119 0.192,-0.114C0.208,-0.099 0.226,-0.089 0.248,-0.082C0.269,-0.074 0.293,-0.071 0.32,-0.071C0.343,-0.071 0.362,-0.075 0.376,-0.084C0.39,-0.094 0.397,-0.105 0.397,-0.12C0.397,-0.146 0.359,-0.165 0.284,-0.175C0.268,-0.177 0.255,-0.179 0.245,-0.18C0.188,-0.188 0.146,-0.203 0.119,-0.226C0.091,-0.249 0.077,-0.28 0.077,-0.319C0.077,-0.365 0.094,-0.4 0.127,-0.425C0.16,-0.45 0.208,-0.463 0.269,-0.463C0.29,-0.463 0.312,-0.461 0.334,-0.458C0.357,-0.454 0.379,-0.449 0.403,-0.442C0.41,-0.45 0.417,-0.456 0.425,-0.46C0.432,-0.464 0.441,-0.466 0.45,-0.466C0.464,-0.466 0.474,-0.462 0.481,-0.453C0.488,-0.445 0.491,-0.433 0.491,-0.416L0.491,-0.356C0.491,-0.342 0.488,-0.331 0.48,-0.323C0.473,-0.316 0.463,-0.312 0.45,-0.312C0.437,-0.312 0.414,-0.324 0.382,-0.347C0.349,-0.37 0.317,-0.382 0.284,-0.382C0.259,-0.382 0.239,-0.378 0.225,-0.369C0.211,-0.361 0.204,-0.35 0.204,-0.335C0.204,-0.312 0.233,-0.297 0.292,-0.289C0.309,-0.287 0.322,-0.285 0.332,-0.284C0.406,-0.273 0.456,-0.257 0.484,-0.236C0.511,-0.215 0.525,-0.183 0.525,-0.141C0.525,-0.092 0.507,-0.054 0.47,-0.027C0.434,0 0.383,0.013 0.316,0.013C0.29,0.013 0.265,0.011 0.241,0.008C0.217,0.005 0.193,0 0.171,-0.007Z" style="fill-rule:nonzero;"/>
            </g>
        </g>
        <g transform="matrix(1.61276,-0.458417,0.403774,1.42052,-1083.99,511.219)">
            <g transform="matrix(238.572,0,0,270.858,1493.48,428.709)">
                <path d="M0.234,-0.207L0.234,-0.107L0.284,-0.107C0.305,-0.107 0.32,-0.103 0.329,-0.095C0.338,-0.087 0.343,-0.073 0.343,-0.054C0.343,-0.035 0.338,-0.021 0.329,-0.013C0.32,-0.004 0.305,0 0.284,0L0.115,0C0.094,0 0.078,-0.004 0.069,-0.013C0.06,-0.021 0.055,-0.035 0.055,-0.054C0.055,-0.071 0.06,-0.085 0.068,-0.094C0.077,-0.102 0.09,-0.107 0.107,-0.107L0.115,-0.107L0.115,-0.471L0.107,-0.471C0.09,-0.471 0.078,-0.476 0.069,-0.485C0.06,-0.494 0.055,-0.508 0.055,-0.525C0.055,-0.544 0.06,-0.558 0.069,-0.566C0.079,-0.575 0.094,-0.579 0.115,-0.579L0.317,-0.579C0.397,-0.579 0.457,-0.564 0.498,-0.533C0.539,-0.503 0.559,-0.458 0.559,-0.398C0.559,-0.335 0.539,-0.288 0.498,-0.255C0.457,-0.223 0.397,-0.207 0.317,-0.207L0.234,-0.207ZM0.234,-0.471L0.234,-0.317L0.303,-0.317C0.342,-0.317 0.371,-0.323 0.39,-0.336C0.409,-0.349 0.419,-0.369 0.419,-0.395C0.419,-0.419 0.409,-0.438 0.389,-0.451C0.369,-0.465 0.34,-0.471 0.303,-0.471L0.234,-0.471Z" style="fill:rgb(2,147,77);fill-rule:nonzero;"/>
            </g>
            <g transform="matrix(238.572,0,0,270.858,1636.65,428.709)">
                <path d="M0.465,-0.472L0.363,-0.472L0.363,-0.108L0.445,-0.108C0.467,-0.108 0.482,-0.104 0.492,-0.095C0.501,-0.087 0.506,-0.073 0.506,-0.054C0.506,-0.035 0.501,-0.021 0.492,-0.013C0.482,-0.004 0.467,0 0.445,0L0.155,0C0.133,0 0.118,-0.004 0.108,-0.013C0.099,-0.021 0.094,-0.035 0.094,-0.054C0.094,-0.073 0.099,-0.087 0.108,-0.095C0.117,-0.104 0.133,-0.108 0.155,-0.108L0.237,-0.108L0.237,-0.472L0.135,-0.472L0.132,-0.373L0.132,-0.361C0.132,-0.345 0.128,-0.333 0.119,-0.324C0.11,-0.315 0.098,-0.311 0.083,-0.311C0.065,-0.311 0.051,-0.316 0.043,-0.325C0.034,-0.334 0.03,-0.349 0.03,-0.369L0.03,-0.373L0.035,-0.519C0.036,-0.548 0.04,-0.565 0.047,-0.571C0.054,-0.577 0.068,-0.58 0.09,-0.58L0.51,-0.58C0.531,-0.58 0.545,-0.577 0.552,-0.571C0.559,-0.565 0.564,-0.548 0.565,-0.519L0.57,-0.373L0.57,-0.369C0.57,-0.349 0.566,-0.334 0.558,-0.325C0.549,-0.316 0.536,-0.311 0.518,-0.311C0.5,-0.311 0.488,-0.316 0.48,-0.324C0.473,-0.333 0.468,-0.35 0.468,-0.373L0.465,-0.472Z" style="fill:rgb(219,27,27);fill-rule:nonzero;"/>
            </g>
        </g>
    </g>
</svg>
